<svg width="28" height="28" viewBox="0 0 28 28" fill="none" xmlns="http://www.w3.org/2000/svg">
<rect width="28" height="28" rx="14" fill="#F4F4F6"/>
<path fill-rule="evenodd" clip-rule="evenodd" d="M13.1875 22.335C12.7619 22.335 12.3989 22.0191 12.3296 21.5885C12.2658 21.2401 12.0212 20.9554 11.6922 20.8466C11.4241 20.7522 11.162 20.6409 10.9074 20.5132C10.6044 20.3543 10.2409 20.3781 9.96008 20.5752C9.62019 20.8258 9.15327 20.787 8.85718 20.4835L7.70552 19.3023C7.39558 18.9844 7.35531 18.4832 7.61032 18.1175C7.80699 17.8228 7.83532 17.4429 7.68462 17.1209C7.58533 16.8973 7.49774 16.6683 7.42225 16.435C7.31412 16.0675 7.01567 15.7922 6.64789 15.7206C6.2044 15.648 5.87699 15.2573 5.87355 14.7966V13.319C5.87119 12.788 6.2451 12.3339 6.75587 12.2473C7.14335 12.1717 7.4669 11.8995 7.61497 11.5245C7.65908 11.419 7.70552 11.3142 7.75428 11.2102C7.9512 10.8214 7.924 10.353 7.68346 9.9909C7.38265 9.5621 7.42883 8.97295 7.79258 8.59896L8.63892 7.73093C9.05634 7.30265 9.71466 7.24722 10.1946 7.59995L10.2213 7.619C10.5797 7.86638 11.0357 7.91119 11.4333 7.73807C11.8587 7.58103 12.1723 7.20611 12.2587 6.75097L12.2704 6.71049C12.3659 6.10795 12.8733 5.66529 13.4685 5.66504H14.4901C15.1013 5.66475 15.623 6.11819 15.723 6.73668L15.7416 6.82003C15.8236 7.25604 16.1209 7.61688 16.5264 7.7726C16.9172 7.94463 17.3665 7.8997 17.7176 7.65353L17.7756 7.61067C18.2679 7.24671 18.945 7.30269 19.3742 7.74284L20.1532 8.543C20.5436 8.94565 20.5927 9.57883 20.2693 10.0397C20.0159 10.4249 19.9836 10.92 20.1845 11.3364L20.2345 11.4555C20.3972 11.8621 20.7492 12.1568 21.1702 12.239C21.7204 12.331 22.125 12.8175 22.1268 13.3892V14.7145C22.1267 15.2186 21.7711 15.6487 21.2863 15.7313C20.8875 15.8098 20.5627 16.1059 20.4399 16.5029C20.3857 16.6616 20.3254 16.8205 20.2588 16.9792C20.1039 17.3281 20.1383 17.7346 20.3494 18.0508C20.6279 18.4483 20.5847 18.9943 20.2472 19.3404L19.1664 20.4501C18.8573 20.7671 18.3698 20.8079 18.0148 20.5466C17.7183 20.3388 17.3343 20.3159 17.0164 20.487C16.7898 20.6022 16.5572 20.7044 16.3198 20.7931C15.9877 20.9106 15.7429 21.2021 15.6789 21.5563C15.6112 22.002 15.2386 22.3317 14.7989 22.335H13.1875Z" stroke="#5B5D71" stroke-width="1.5" stroke-linecap="round" stroke-linejoin="round"/>
<path fill-rule="evenodd" clip-rule="evenodd" d="M16.7085 14.0001C16.7085 15.5344 15.4959 16.7781 14 16.7781C12.5041 16.7781 11.2915 15.5344 11.2915 14.0001C11.2915 12.4659 12.5041 11.2222 14 11.2222C15.4959 11.2222 16.7085 12.4659 16.7085 14.0001Z" stroke="#5B5D71" stroke-width="1.5" stroke-linecap="round" stroke-linejoin="round"/>
</svg>
